<svg width="55" height="55" viewBox="0 0 55 55" fill="none" xmlns="http://www.w3.org/2000/svg">
<path d="M27.0967 13.1963C19.4092 13.1963 13.2084 19.3971 13.2084 27.0846C13.2084 34.7721 19.4092 40.9729 27.0967 40.9729C34.7842 40.9729 40.985 34.7721 40.985 27.0846C40.985 19.3971 34.7842 13.1963 27.0967 13.1963ZM27.0967 36.1138C22.1288 36.1138 18.0675 32.0646 18.0675 27.0846C18.0675 22.1046 22.1167 18.0554 27.0967 18.0554C32.0766 18.0554 36.1259 22.1046 36.1259 27.0846C36.1259 32.0646 32.0646 36.1138 27.0967 36.1138ZM44.7925 12.6282C44.7925 14.4292 43.342 15.8676 41.5531 15.8676C39.7521 15.8676 38.3137 14.4171 38.3137 12.6282C38.3137 10.8393 39.7642 9.3888 41.5531 9.3888C43.342 9.3888 44.7925 10.8393 44.7925 12.6282ZM53.9909 15.9159C53.7854 11.5766 52.7943 7.73284 49.6153 4.56597C46.4484 1.3991 42.6047 0.407946 38.2653 0.190375C33.793 -0.0634583 20.3882 -0.0634583 15.9159 0.190375C11.5887 0.395859 7.74493 1.38702 4.56597 4.55389C1.38702 7.72076 0.407946 11.5645 0.190375 15.9039C-0.0634583 20.3761 -0.0634583 33.7809 0.190375 38.2532C0.395859 42.5926 1.38702 46.4363 4.56597 49.6032C7.74493 52.7701 11.5766 53.7612 15.9159 53.9788C20.3882 54.2326 33.793 54.2326 38.2653 53.9788C42.6047 53.7733 46.4484 52.7822 49.6153 49.6032C52.7822 46.4363 53.7733 42.5926 53.9909 38.2532C54.2447 33.7809 54.2447 20.3882 53.9909 15.9159ZM48.2132 43.0519C47.2704 45.421 45.4452 47.2462 43.064 48.2011C39.4982 49.6153 31.0371 49.2889 27.0967 49.2889C23.1562 49.2889 14.683 49.6032 11.1294 48.2011C8.76026 47.2583 6.93508 45.4331 5.98019 43.0519C4.56597 39.4862 4.89233 31.025 4.89233 27.0846C4.89233 23.1441 4.57806 14.6709 5.98019 11.1173C6.92299 8.74818 8.74817 6.92299 11.1294 5.9681C14.6951 4.55389 23.1562 4.88024 27.0967 4.88024C31.0371 4.88024 39.5103 4.56597 43.064 5.9681C45.4331 6.91091 47.2583 8.73609 48.2132 11.1173C49.6274 14.683 49.301 23.1441 49.301 27.0846C49.301 31.025 49.6274 39.4982 48.2132 43.0519Z" fill="white"/>
</svg>
