<svg width="55" height="39" viewBox="0 0 55 39" fill="none" xmlns="http://www.w3.org/2000/svg">
<path d="M53.0491 5.96076C52.426 3.61447 50.59 1.76661 48.2589 1.13951C44.0336 0 27.0906 0 27.0906 0C27.0906 0 10.1478 0 5.92237 1.13951C3.59126 1.76671 1.7553 3.61447 1.13217 5.96076C0 10.2135 0 19.0866 0 19.0866C0 19.0866 0 27.9596 1.13217 32.2124C1.7553 34.5587 3.59126 36.3295 5.92237 36.9566C10.1478 38.0962 27.0906 38.0962 27.0906 38.0962C27.0906 38.0962 44.0335 38.0962 48.2589 36.9566C50.59 36.3295 52.426 34.5587 53.0491 32.2124C54.1813 27.9596 54.1813 19.0866 54.1813 19.0866C54.1813 19.0866 54.1813 10.2135 53.0491 5.96076ZM21.5493 27.1426V11.0305L35.7103 19.0868L21.5493 27.1426Z" fill="white"/>
</svg>
