<svg width="55" height="45" viewBox="0 0 55 45" fill="none" xmlns="http://www.w3.org/2000/svg">
<path d="M48.612 10.9669C48.6464 11.4482 48.6464 11.9296 48.6464 12.4108C48.6464 27.0906 37.4733 44.0052 17.052 44.0052C10.7606 44.0052 4.91623 42.183 0 39.0203C0.893889 39.1234 1.75328 39.1578 2.68156 39.1578C7.87272 39.1578 12.6515 37.4045 16.4676 34.4135C11.5857 34.3103 7.49461 31.1131 6.08505 26.7125C6.77269 26.8156 7.46022 26.8844 8.18225 26.8844C9.17921 26.8844 10.1763 26.7468 11.1045 26.5063C6.01637 25.4748 2.20017 21.0056 2.20017 15.6081V15.4706C3.67841 16.2957 5.39751 16.8114 7.21947 16.8801C4.22848 14.886 2.26896 11.4826 2.26896 7.63208C2.26896 5.56937 2.81892 3.67852 3.78159 2.02831C9.24789 8.76661 17.4645 13.1671 26.678 13.6484C26.5062 12.8233 26.403 11.9639 26.403 11.1045C26.403 4.98491 31.3536 0 37.5074 0C40.7047 0 43.5925 1.34078 45.6209 3.50666C48.1305 3.02538 50.537 2.0971 52.6686 0.825104C51.8434 3.40359 50.0901 5.56948 47.7868 6.94454C50.0215 6.70401 52.1874 6.08505 54.1813 5.22566C52.6688 7.42583 50.7779 9.38536 48.612 10.9669Z" fill="white"/>
</svg>
